<svg xmlns="http://www.w3.org/2000/svg" width="21" height="21" viewBox="0 0 21 21" fill="none"><g clip-path="url(#clip0_302_5623)"><path d="M19.6716 10.3388C19.7632 5.09289 15.5848 0.766017 10.3389 0.67445C5.09298 0.582882 0.766102 4.7613 0.674534 10.0072C0.582967 15.2531 4.76138 19.58 10.0073 19.6716C15.2532 19.7631 19.5801 15.5847 19.6716 10.3388Z" fill="url(#paint0_linear_302_5623)"></path><path d="M19.6716 10.3388C19.7632 5.09289 15.5848 0.766017 10.3389 0.67445C5.09298 0.582882 0.766102 4.7613 0.674534 10.0072C0.582967 15.2531 4.76138 19.58 10.0073 19.6716C15.2532 19.7631 19.5801 15.5847 19.6716 10.3388Z" stroke="url(#paint1_radial_302_5623)"></path><path d="M10.5621 4.75425C10.414 4.83504 10.284 4.91616 10.173 4.99164C10.062 4.91616 9.93203 4.83504 9.78392 4.75425C9.252 4.46412 8.47601 4.17285 7.50635 4.17285C6.49414 4.17285 5.483 4.57857 4.72832 5.38356C3.97045 6.19195 3.50635 7.36347 3.50635 8.83952C3.50635 11.0694 5.0882 12.9077 6.56093 14.1243C7.31525 14.7475 8.08426 15.2438 8.70082 15.5864C9.00896 15.7575 9.28551 15.8939 9.50903 15.9897C9.62014 16.0373 9.72564 16.0782 9.81998 16.1084C9.89192 16.1314 10.0291 16.1729 10.173 16.1729C10.3169 16.1729 10.4541 16.1314 10.526 16.1084C10.6204 16.0782 10.7259 16.0373 10.837 15.9897C11.0605 15.8939 11.3371 15.7575 11.6452 15.5864C12.2618 15.2438 13.0308 14.7475 13.7851 14.1243C15.2578 12.9077 16.8397 11.0694 16.8397 8.83952C16.8397 7.36347 16.3756 6.19195 15.6177 5.38356C14.863 4.57857 13.8519 4.17285 12.8397 4.17285C11.87 4.17285 11.094 4.46412 10.5621 4.75425Z" fill="white"></path></g><defs><linearGradient id="paint0_linear_302_5623" x1="10.3565" y1="0.16603" x2="10.0075" y2="20.163" gradientUnits="userSpaceOnUse"><stop stop-color="#10834B"></stop><stop offset="1" stop-color="#09F785"></stop></linearGradient><radialGradient id="paint1_radial_302_5623" cx="0" cy="0" r="1" gradientUnits="userSpaceOnUse" gradientTransform="translate(9.5074 0.151208) rotate(88.5684) scale(20.018 21.9333)"><stop stop-color="white" stop-opacity="0.48"></stop><stop offset="1" stop-color="white" stop-opacity="0.04"></stop></radialGradient><clipPath id="clip0_302_5623"><rect width="21" height="21" fill="white"></rect></clipPath></defs></svg>